<svg xmlns="http://www.w3.org/2000/svg" xmlns:xlink="http://www.w3.org/1999/xlink" width="500" zoomAndPan="magnify" viewBox="0 0 375 374.999991" height="500" preserveAspectRatio="xMidYMid meet" version="1.0"><defs><clipPath id="b10e3ee482"><path d="M 63 208 L 312 208 L 312 260.117188 L 63 260.117188 Z M 63 208 " clip-rule="nonzero"/></clipPath><clipPath id="4d8a5b2f37"><path d="M 40.261719 208 L 335.011719 208 L 335.011719 248 L 40.261719 248 Z M 40.261719 208 " clip-rule="nonzero"/></clipPath><clipPath id="40faeaeacb"><path d="M 40.261719 165.585938 L 335.011719 165.585938 L 335.011719 229.789062 L 40.261719 229.789062 Z M 40.261719 165.585938 " clip-rule="nonzero"/></clipPath><clipPath id="43e4d3e1a5"><path d="M 335.011719 208.828125 C 335.011719 220.394531 269.039062 229.789062 187.636719 229.789062 C 106.234375 229.789062 40.261719 220.394531 40.261719 208.828125 C 40.261719 197.261719 106.234375 165.585938 187.636719 165.585938 C 269.039062 165.585938 335.011719 197.261719 335.011719 208.828125 Z M 335.011719 208.828125 " clip-rule="nonzero"/></clipPath><clipPath id="68db36f8ba"><path d="M 185 170 L 190 170 L 190 229.789062 L 185 229.789062 Z M 185 170 " clip-rule="nonzero"/></clipPath><clipPath id="a9b0040096"><path d="M 335.011719 208.828125 C 335.011719 220.394531 269.039062 229.789062 187.636719 229.789062 C 106.234375 229.789062 40.261719 220.394531 40.261719 208.828125 C 40.261719 197.261719 106.234375 165.585938 187.636719 165.585938 C 269.039062 165.585938 335.011719 197.261719 335.011719 208.828125 Z M 335.011719 208.828125 " clip-rule="nonzero"/></clipPath><clipPath id="06e5f4d013"><path d="M 67 176 L 154 176 L 154 225 L 67 225 Z M 67 176 " clip-rule="nonzero"/></clipPath><clipPath id="a1df472f33"><path d="M 335.011719 208.828125 C 335.011719 220.394531 269.039062 229.789062 187.636719 229.789062 C 106.234375 229.789062 40.261719 220.394531 40.261719 208.828125 C 40.261719 197.261719 106.234375 165.585938 187.636719 165.585938 C 269.039062 165.585938 335.011719 197.261719 335.011719 208.828125 Z M 335.011719 208.828125 " clip-rule="nonzero"/></clipPath><clipPath id="50a215634c"><path d="M 221 176 L 308 176 L 308 225 L 221 225 Z M 221 176 " clip-rule="nonzero"/></clipPath><clipPath id="9f92df7d3e"><path d="M 335.011719 208.828125 C 335.011719 220.394531 269.039062 229.789062 187.636719 229.789062 C 106.234375 229.789062 40.261719 220.394531 40.261719 208.828125 C 40.261719 197.261719 106.234375 165.585938 187.636719 165.585938 C 269.039062 165.585938 335.011719 197.261719 335.011719 208.828125 Z M 335.011719 208.828125 " clip-rule="nonzero"/></clipPath><clipPath id="35ac36bad8"><path d="M 114 114.617188 L 262 114.617188 L 262 199 L 114 199 Z M 114 114.617188 " clip-rule="nonzero"/></clipPath><clipPath id="8ae94d0a5b"><path d="M 114 114.617188 L 198 114.617188 L 198 193 L 114 193 Z M 114 114.617188 " clip-rule="nonzero"/></clipPath></defs><g clip-path="url(#b10e3ee482)"><path fill="#ddd6d4" d="M 63.777344 208.828125 C 63.777344 237.109375 119.214844 260.03125 187.636719 260.03125 C 256.054688 260.03125 311.441406 237.109375 311.441406 208.828125 Z M 63.777344 208.828125 " fill-opacity="1" fill-rule="nonzero"/></g><g clip-path="url(#4d8a5b2f37)"><path fill="#a5a09f" d="M 40.261719 208.828125 L 40.261719 226.339844 C 40.261719 237.90625 106.234375 247.296875 187.636719 247.296875 C 269.039062 247.296875 335.011719 237.90625 335.011719 226.339844 L 335.011719 208.828125 Z M 40.261719 208.828125 " fill-opacity="1" fill-rule="nonzero"/></g><g clip-path="url(#40faeaeacb)"><g clip-path="url(#43e4d3e1a5)"><path fill="#ddd6d4" d="M 335.011719 208.828125 C 335.011719 220.394531 269.039062 229.789062 187.636719 229.789062 C 106.234375 229.789062 40.261719 220.394531 40.261719 208.828125 C 40.261719 197.261719 106.234375 165.585938 187.636719 165.585938 C 269.039062 165.585938 335.011719 197.261719 335.011719 208.828125 Z M 335.011719 208.828125 " fill-opacity="1" fill-rule="nonzero"/></g></g><g clip-path="url(#68db36f8ba)"><g clip-path="url(#a9b0040096)"><path fill="#a5a09f" d="M 187.636719 170.890625 C 188.378906 175.933594 188.753906 180.972656 189.019531 186.011719 C 189.285156 191.054688 189.390625 196.09375 189.390625 201.136719 C 189.390625 206.175781 189.285156 211.214844 189.019531 216.257812 C 188.753906 221.296875 188.378906 226.339844 187.636719 231.378906 C 186.890625 226.339844 186.519531 221.296875 186.25 216.257812 C 185.984375 211.214844 185.878906 206.175781 185.878906 201.136719 C 185.878906 196.09375 185.984375 191.054688 186.25 186.011719 C 186.519531 180.972656 186.890625 175.933594 187.636719 170.890625 Z M 187.636719 170.890625 " fill-opacity="1" fill-rule="nonzero"/></g></g><g clip-path="url(#06e5f4d013)"><g clip-path="url(#a1df472f33)"><path fill="#a5a09f" d="M 153.371094 176.089844 C 146.03125 179.859375 138.632812 183.519531 131.34375 187.285156 C 127.726562 189.195312 124.054688 191.054688 120.4375 193.015625 C 116.820312 194.980469 113.257812 196.890625 109.691406 198.90625 C 102.5625 202.9375 95.539062 207.023438 88.570312 211.269531 C 81.652344 215.566406 74.789062 219.972656 67.925781 224.429688 C 73.832031 218.964844 80.214844 213.976562 86.921875 209.304688 C 90.21875 206.917969 93.675781 204.742188 97.136719 202.515625 C 100.59375 200.339844 104.15625 198.21875 107.777344 196.199219 C 111.394531 194.238281 115.011719 192.273438 118.734375 190.363281 C 122.460938 188.558594 126.183594 186.703125 130.015625 185.058594 C 137.625 181.769531 145.390625 178.691406 153.371094 176.089844 Z M 153.371094 176.089844 " fill-opacity="1" fill-rule="nonzero"/></g></g><g clip-path="url(#50a215634c)"><g clip-path="url(#9f92df7d3e)"><path fill="#a5a09f" d="M 221.84375 176.089844 C 229.824219 178.691406 237.59375 181.769531 245.203125 185.109375 C 249.03125 186.808594 252.757812 188.613281 256.480469 190.417969 C 260.207031 192.273438 263.824219 194.238281 267.441406 196.253906 C 271.058594 198.269531 274.570312 200.390625 278.082031 202.566406 C 281.539062 204.796875 285 206.972656 288.296875 209.359375 C 295 214.027344 301.386719 219.070312 307.289062 224.480469 C 300.425781 220.023438 293.617188 215.621094 286.648438 211.324219 C 279.730469 207.023438 272.65625 202.9375 265.527344 198.960938 C 261.960938 196.945312 258.394531 194.980469 254.777344 193.070312 C 251.160156 191.105469 247.542969 189.25 243.871094 187.339844 C 236.582031 183.519531 229.242188 179.859375 221.84375 176.089844 Z M 221.84375 176.089844 " fill-opacity="1" fill-rule="nonzero"/></g></g><g clip-path="url(#35ac36bad8)"><path fill="#66a5af" d="M 187.636719 114.703125 C 147.09375 114.703125 114.214844 147.492188 114.214844 187.921875 C 163.160156 201.984375 212.109375 201.984375 261.058594 187.921875 C 261.058594 147.492188 228.175781 114.703125 187.636719 114.703125 Z M 187.636719 114.703125 " fill-opacity="1" fill-rule="nonzero"/></g><g clip-path="url(#8ae94d0a5b)"><path fill="#508b99" d="M 197.316406 115.339844 C 194.125 114.914062 190.878906 114.703125 187.636719 114.703125 C 147.09375 114.703125 114.214844 147.492188 114.214844 187.921875 C 120.546875 189.726562 126.875 191.320312 133.207031 192.699219 C 136.613281 152.375 163.375 120.167969 197.316406 115.339844 Z M 197.316406 115.339844 " fill-opacity="1" fill-rule="nonzero"/></g><path fill="#ffffff" d="M 244.722656 165.585938 C 248.128906 158.582031 234.296875 143.511719 228.761719 138.523438 C 222.003906 132.421875 210.300781 124.359375 204.820312 127.382812 C 198.382812 130.9375 198.382812 152.746094 210.671875 163.464844 C 221.898438 173.277344 241.476562 172.164062 244.722656 165.585938 Z M 244.722656 165.585938 " fill-opacity="0.1765" fill-rule="nonzero"/><path fill="#a5a09f" d="M 114.957031 177.257812 C 114.425781 180.761719 114.160156 184.316406 114.160156 187.921875 C 163.109375 201.984375 212.054688 201.984375 261.003906 187.921875 C 261.003906 184.316406 260.738281 180.761719 260.207031 177.257812 C 213.492188 188.929688 165.078125 188.929688 114.957031 177.257812 Z M 114.957031 177.257812 " fill-opacity="1" fill-rule="nonzero"/><path fill="#f4ad48" d="M 57.390625 225.011719 C 57.390625 225.394531 57.351562 225.773438 57.265625 226.152344 C 57.183594 226.527344 57.058594 226.890625 56.894531 227.246094 C 56.730469 227.597656 56.527344 227.9375 56.289062 228.253906 C 56.050781 228.574219 55.777344 228.867188 55.476562 229.140625 C 55.171875 229.410156 54.839844 229.652344 54.484375 229.863281 C 54.125 230.078125 53.75 230.257812 53.351562 230.402344 C 52.957031 230.550781 52.546875 230.660156 52.125 230.734375 C 51.703125 230.8125 51.277344 230.847656 50.847656 230.847656 C 50.417969 230.847656 49.992188 230.8125 49.570312 230.734375 C 49.148438 230.660156 48.742188 230.550781 48.34375 230.402344 C 47.945312 230.257812 47.570312 230.078125 47.210938 229.863281 C 46.855469 229.652344 46.523438 229.410156 46.21875 229.140625 C 45.917969 228.867188 45.644531 228.574219 45.40625 228.253906 C 45.167969 227.9375 44.964844 227.597656 44.800781 227.246094 C 44.636719 226.890625 44.511719 226.527344 44.429688 226.152344 C 44.34375 225.773438 44.304688 225.394531 44.304688 225.011719 C 44.304688 224.628906 44.34375 224.25 44.429688 223.875 C 44.511719 223.496094 44.636719 223.132812 44.800781 222.777344 C 44.964844 222.425781 45.167969 222.085938 45.40625 221.769531 C 45.644531 221.449219 45.917969 221.15625 46.21875 220.882812 C 46.523438 220.613281 46.855469 220.371094 47.210938 220.160156 C 47.570312 219.945312 47.945312 219.765625 48.34375 219.621094 C 48.742188 219.472656 49.148438 219.363281 49.570312 219.289062 C 49.992188 219.210938 50.417969 219.175781 50.847656 219.175781 C 51.277344 219.175781 51.703125 219.210938 52.125 219.289062 C 52.546875 219.363281 52.957031 219.472656 53.351562 219.621094 C 53.75 219.765625 54.125 219.945312 54.484375 220.160156 C 54.839844 220.371094 55.171875 220.613281 55.476562 220.882812 C 55.777344 221.15625 56.050781 221.449219 56.289062 221.769531 C 56.527344 222.085938 56.730469 222.425781 56.894531 222.777344 C 57.058594 223.132812 57.183594 223.496094 57.265625 223.875 C 57.351562 224.25 57.390625 224.628906 57.390625 225.011719 Z M 57.390625 225.011719 " fill-opacity="1" fill-rule="nonzero"/><path fill="#f4ad48" d="M 330.964844 225.011719 C 330.964844 225.394531 330.925781 225.773438 330.839844 226.152344 C 330.757812 226.527344 330.632812 226.890625 330.46875 227.246094 C 330.304688 227.597656 330.101562 227.9375 329.863281 228.253906 C 329.625 228.574219 329.355469 228.867188 329.050781 229.140625 C 328.746094 229.410156 328.414062 229.652344 328.058594 229.863281 C 327.699219 230.078125 327.324219 230.257812 326.925781 230.402344 C 326.53125 230.550781 326.121094 230.660156 325.699219 230.734375 C 325.277344 230.8125 324.851562 230.847656 324.421875 230.847656 C 323.992188 230.847656 323.566406 230.8125 323.144531 230.734375 C 322.722656 230.660156 322.316406 230.550781 321.917969 230.402344 C 321.519531 230.257812 321.144531 230.078125 320.785156 229.863281 C 320.429688 229.652344 320.097656 229.410156 319.796875 229.140625 C 319.492188 228.867188 319.21875 228.574219 318.980469 228.253906 C 318.742188 227.9375 318.542969 227.597656 318.375 227.246094 C 318.210938 226.890625 318.089844 226.527344 318.003906 226.152344 C 317.921875 225.773438 317.878906 225.394531 317.878906 225.011719 C 317.878906 224.628906 317.921875 224.25 318.003906 223.875 C 318.089844 223.496094 318.210938 223.132812 318.375 222.777344 C 318.542969 222.425781 318.742188 222.085938 318.980469 221.769531 C 319.21875 221.449219 319.492188 221.15625 319.796875 220.882812 C 320.097656 220.613281 320.429688 220.371094 320.785156 220.160156 C 321.144531 219.945312 321.519531 219.765625 321.917969 219.621094 C 322.316406 219.472656 322.722656 219.363281 323.144531 219.289062 C 323.566406 219.210938 323.992188 219.175781 324.421875 219.175781 C 324.851562 219.175781 325.277344 219.210938 325.699219 219.289062 C 326.121094 219.363281 326.53125 219.472656 326.925781 219.621094 C 327.324219 219.765625 327.699219 219.945312 328.058594 220.160156 C 328.414062 220.371094 328.746094 220.613281 329.050781 220.882812 C 329.355469 221.15625 329.625 221.449219 329.863281 221.769531 C 330.101562 222.085938 330.304688 222.425781 330.46875 222.777344 C 330.632812 223.132812 330.757812 223.496094 330.839844 223.875 C 330.925781 224.25 330.964844 224.628906 330.964844 225.011719 Z M 330.964844 225.011719 " fill-opacity="1" fill-rule="nonzero"/><path fill="#f4ad48" d="M 119.535156 235.890625 C 119.535156 236.273438 119.492188 236.652344 119.410156 237.027344 C 119.324219 237.402344 119.199219 237.769531 119.035156 238.121094 C 118.871094 238.476562 118.671875 238.8125 118.429688 239.132812 C 118.191406 239.449219 117.921875 239.746094 117.617188 240.015625 C 117.3125 240.285156 116.984375 240.527344 116.625 240.742188 C 116.269531 240.953125 115.890625 241.132812 115.496094 241.28125 C 115.097656 241.429688 114.6875 241.539062 114.265625 241.613281 C 113.84375 241.6875 113.417969 241.726562 112.988281 241.726562 C 112.558594 241.726562 112.132812 241.6875 111.714844 241.613281 C 111.292969 241.539062 110.882812 241.429688 110.484375 241.28125 C 110.089844 241.132812 109.710938 240.953125 109.355469 240.742188 C 108.996094 240.527344 108.667969 240.285156 108.363281 240.015625 C 108.058594 239.746094 107.789062 239.449219 107.546875 239.132812 C 107.308594 238.8125 107.109375 238.476562 106.945312 238.121094 C 106.78125 237.769531 106.65625 237.402344 106.570312 237.027344 C 106.488281 236.652344 106.445312 236.273438 106.445312 235.890625 C 106.445312 235.503906 106.488281 235.125 106.570312 234.75 C 106.65625 234.375 106.78125 234.007812 106.945312 233.65625 C 107.109375 233.300781 107.308594 232.964844 107.546875 232.644531 C 107.789062 232.328125 108.058594 232.03125 108.363281 231.761719 C 108.667969 231.492188 108.996094 231.25 109.355469 231.035156 C 109.710938 230.824219 110.089844 230.644531 110.484375 230.496094 C 110.882812 230.351562 111.292969 230.238281 111.714844 230.164062 C 112.132812 230.089844 112.558594 230.050781 112.988281 230.050781 C 113.417969 230.050781 113.84375 230.089844 114.265625 230.164062 C 114.6875 230.238281 115.097656 230.351562 115.496094 230.496094 C 115.890625 230.644531 116.269531 230.824219 116.625 231.035156 C 116.984375 231.25 117.3125 231.492188 117.617188 231.761719 C 117.921875 232.03125 118.191406 232.328125 118.429688 232.644531 C 118.671875 232.964844 118.871094 233.300781 119.035156 233.65625 C 119.199219 234.007812 119.324219 234.375 119.410156 234.75 C 119.492188 235.125 119.535156 235.503906 119.535156 235.890625 Z M 119.535156 235.890625 " fill-opacity="1" fill-rule="nonzero"/><path fill="#f4ad48" d="M 271.003906 236.152344 C 271.003906 236.539062 270.964844 236.917969 270.878906 237.292969 C 270.796875 237.667969 270.671875 238.035156 270.507812 238.386719 C 270.34375 238.742188 270.140625 239.078125 269.902344 239.398438 C 269.664062 239.714844 269.394531 240.011719 269.089844 240.28125 C 268.785156 240.550781 268.453125 240.792969 268.097656 241.007812 C 267.738281 241.21875 267.363281 241.398438 266.964844 241.546875 C 266.570312 241.691406 266.160156 241.804688 265.738281 241.878906 C 265.316406 241.953125 264.890625 241.992188 264.460938 241.992188 C 264.03125 241.992188 263.605469 241.953125 263.183594 241.878906 C 262.761719 241.804688 262.355469 241.691406 261.957031 241.546875 C 261.558594 241.398438 261.183594 241.21875 260.824219 241.007812 C 260.46875 240.792969 260.136719 240.550781 259.835938 240.28125 C 259.53125 240.011719 259.257812 239.714844 259.019531 239.398438 C 258.78125 239.078125 258.582031 238.742188 258.414062 238.386719 C 258.25 238.035156 258.128906 237.667969 258.042969 237.292969 C 257.960938 236.917969 257.917969 236.539062 257.917969 236.152344 C 257.917969 235.769531 257.960938 235.390625 258.042969 235.015625 C 258.128906 234.640625 258.25 234.273438 258.414062 233.921875 C 258.582031 233.566406 258.78125 233.230469 259.019531 232.910156 C 259.257812 232.59375 259.53125 232.296875 259.835938 232.027344 C 260.136719 231.757812 260.46875 231.515625 260.824219 231.300781 C 261.183594 231.089844 261.558594 230.910156 261.957031 230.761719 C 262.355469 230.617188 262.761719 230.503906 263.183594 230.429688 C 263.605469 230.355469 264.03125 230.316406 264.460938 230.316406 C 264.890625 230.316406 265.316406 230.355469 265.738281 230.429688 C 266.160156 230.503906 266.570312 230.617188 266.964844 230.761719 C 267.363281 230.910156 267.738281 231.089844 268.097656 231.300781 C 268.453125 231.515625 268.785156 231.757812 269.089844 232.027344 C 269.394531 232.296875 269.664062 232.59375 269.902344 232.910156 C 270.140625 233.230469 270.34375 233.566406 270.507812 233.921875 C 270.671875 234.273438 270.796875 234.640625 270.878906 235.015625 C 270.964844 235.390625 271.003906 235.769531 271.003906 236.152344 Z M 271.003906 236.152344 " fill-opacity="1" fill-rule="nonzero"/><path fill="#f4ad48" d="M 195.296875 238.808594 C 195.296875 239.191406 195.253906 239.570312 195.171875 239.945312 C 195.085938 240.320312 194.960938 240.6875 194.796875 241.039062 C 194.632812 241.394531 194.433594 241.730469 194.195312 242.050781 C 193.953125 242.367188 193.683594 242.664062 193.378906 242.933594 C 193.074219 243.207031 192.746094 243.445312 192.386719 243.660156 C 192.03125 243.871094 191.652344 244.054688 191.257812 244.199219 C 190.859375 244.347656 190.449219 244.457031 190.027344 244.53125 C 189.609375 244.605469 189.183594 244.644531 188.753906 244.644531 C 188.324219 244.644531 187.898438 244.605469 187.476562 244.53125 C 187.054688 244.457031 186.644531 244.347656 186.25 244.199219 C 185.851562 244.054688 185.472656 243.871094 185.117188 243.660156 C 184.757812 243.445312 184.429688 243.207031 184.125 242.933594 C 183.820312 242.664062 183.550781 242.367188 183.3125 242.050781 C 183.074219 241.730469 182.871094 241.394531 182.707031 241.039062 C 182.542969 240.6875 182.417969 240.320312 182.335938 239.945312 C 182.25 239.570312 182.207031 239.191406 182.207031 238.808594 C 182.207031 238.425781 182.25 238.042969 182.335938 237.667969 C 182.417969 237.292969 182.542969 236.925781 182.707031 236.574219 C 182.871094 236.21875 183.074219 235.882812 183.3125 235.566406 C 183.550781 235.246094 183.820312 234.949219 184.125 234.679688 C 184.429688 234.410156 184.757812 234.167969 185.117188 233.953125 C 185.472656 233.742188 185.851562 233.5625 186.25 233.414062 C 186.644531 233.269531 187.054688 233.15625 187.476562 233.082031 C 187.898438 233.007812 188.324219 232.96875 188.753906 232.96875 C 189.183594 232.96875 189.609375 233.007812 190.027344 233.082031 C 190.449219 233.15625 190.859375 233.269531 191.257812 233.414062 C 191.652344 233.5625 192.03125 233.742188 192.386719 233.953125 C 192.746094 234.167969 193.074219 234.410156 193.378906 234.679688 C 193.683594 234.949219 193.953125 235.246094 194.195312 235.566406 C 194.433594 235.882812 194.632812 236.21875 194.796875 236.574219 C 194.960938 236.925781 195.085938 237.292969 195.171875 237.667969 C 195.253906 238.042969 195.296875 238.425781 195.296875 238.808594 Z M 195.296875 238.808594 " fill-opacity="1" fill-rule="nonzero"/></svg>